<svg xmlns="http://www.w3.org/2000/svg" viewBox="0 0 292.04 360.77"><title>black-rabbit</title><g id="Livello_2" data-name="Livello 2"><g id="Livello_2-2" data-name="Livello 2"><path id="BlackRabbit" d="M105.95,209.93c1.69,4.33,2.88,9,5.16,12.94,8.75,15.29,9.66,30.43,3.37,47.24-3.4,9.1-9.29,14.56-16.24,19.6C88.77,296.6,81.48,304.14,82.16,317c.58,11,.35,22,13.17,30.75-13.24-.32-22.17-.87-31.12-9.1-13.41-12.33-20.83-25.52-18.28-43.89.81-5.81.27-11.8.72-17.68,1-13.44,6.8-24.21,17.92-32.23,3.11-2.24,5.15-5.94,6.5-7.56,3.66,3.91,7.2,9.64,12.33,12.63S95.46,253.39,102,255c.38-24.61-12.73-40.73-28-34.13,5.46-18.87-6.08-30.19-16.73-42.19-12.45-14-24-28.81-36.53-42.79C10.47,124.47,4.76,111.25,3.86,96.21,2.22,68.77,1.13,41.28,0,13.81-.24,7.86,11.81-2,17.79.37c6.81,2.74,15,6.85,18.28,12.76C50.92,40.21,64.37,68.07,78,95.83A24.23,24.23,0,0,1,80,108.36c-1.6,15.5-3.86,30.94-5.94,46.86L60.62,154,83.8,174.47c1.41-19.36,2.24-36.92,4.12-54.37,1.4-13-1.44-24.22-8.24-35.44C68.86,66.78,59.29,48.13,49.25,29.77c-1.71-3.13-3.11-6.42-4.66-9.64l3.74-3.24c1.37,2.76,2.08,6.27,4.21,8.17,35.81,31.87,58.95,72.31,78.15,115.35,3.18,7.12,7.33,9.33,14.9,9.32s12.1-1.74,15.94-9.22c12.79-24.93,25-50.41,40.72-73.49,12.46-18.34,29.66-33.47,46.65-48.79-1.75,3.37-3.45,6.77-5.27,10.11-12.12,22.19-24.32,44.34-36.35,66.59-1.59,2.94-3.43,6.38-3.28,9.5,1,22.65,2.57,45.29,4.08,70.1l23.46-20.39-13.48,1.18c-2.11-16.7-4.39-33.32-6.14-50-.33-3.15.84-6.82,2.3-9.75q20.42-41.09,41.25-82c6.73-13.2,23.4-16.56,34.3-7C291.29,8,292.15,11,292,13.14c-1.66,31.18-3.34,62.36-5.47,93.51-1,14-10.63,23.62-19,33.68-10.57,12.76-21.43,25.27-32.12,37.93-10.31,12.21-24.17,22.86-16.49,43.14-13-5.84-20.39-1.56-25.67,13.13-2.08,5.79-2.9,12-4.31,18.08,17.42,3.14,25.46-1.46,30.83-16.77,2.59,3.09,4.8,7.14,8.19,9.49,16.14,11.21,18.36,27.81,18.47,45.38a33.44,33.44,0,0,0-.16,3.74c2.26,18.51-4.13,32.86-19,44.51-9.07,7.13-11.07,9-26.82,8.48,2.72-5.84,6.86-11.75,8.24-18.26,3.31-15.5,1.66-30.13-14.21-38.7-16.85-9.1-18.18-26.42-22.84-41.94-.69-2.28.77-5.43,1.78-8,4.12-10.32,8.45-20.56,11.32-31.52-6.2,10.95-12.73,21.73-18.36,33-1.41,2.81,0,7.08.24,10.66,1.39,18.08,9.32,31.61,24.52,42.53,17.1,12.28,18.3,32.15,5.53,49-2.45,3.23-4.61,6.76-7.43,9.63-5.54,5.63-11.85,9.15-20.08,5.25-2.81-1.33-6.09-1.78-8.71-3.37-4.32-2.63-12-.74-12.3-9-.32-8.54-.94-16.86,9-21.36,3.65-1.65,6.48-5.14,9.29-8.21-18.53,6-18.53,6-39.86,1.78,2.76,2.22,5.19,5.2,8.33,6.51,10.76,4.52,9,13.64,8.83,22.23a5.64,5.64,0,0,1-1.11,3.35c-10.1,11.79-34.31,11.08-43.2-1.8-4.64-6.72-9-14.2-11.12-22-3.38-12.64-.34-24.15,11.6-31.81a18,18,0,0,1,1.48-1.14c19.7-9.8,21.58-28.87,24.48-47.33a10.59,10.59,0,0,0-1.21-6.17c-5.71-10.67-11.65-21.21-17.51-31.8Z"/></g></g></svg>